PathFileType	4	(X/Y/Z)	/Users/niels/Desktop/University/Third Semester/Perception and Action/Exam/Gymnastics Motion Tracking/Code for Gym Tracking/Analyzed Data/Webcam_Backflip/id5_6_trajectory_Sports2D/id5_6_trajectory_Sports2D_px_person00.trc
DataRate	CameraRate	NumFrames	NumMarkers	Units	OrigDataRate	OrigDataStartFrame	OrigNumFrames
29.77272727272727	29.77272727272727	12	22	m	29.77272727272727	99	132
Frame#	Time	Hip			RHip			RKnee			RAnkle			RBigToe			RSmallToe			RHeel			LHip			LKnee			LAnkle			LBigToe			LSmallToe			LHeel			Neck			Head			Nose			RShoulder			RElbow			RWrist			LShoulder			LElbow			LWrist		
		X1	Y1	Z1	X2	Y2	Z2	X3	Y3	Z3	X4	Y4	Z4	X5	Y5	Z5	X6	Y6	Z6	X7	Y7	Z7	X8	Y8	Z8	X9	Y9	Z9	X10	Y10	Z10	X11	Y11	Z11	X12	Y12	Z12	X13	Y13	Z13	X14	Y14	Z14	X15	Y15	Z15	X16	Y16	Z16	X17	Y17	Z17	X18	Y18	Z18	X19	Y19	Z19	X20	Y20	Z20	X21	Y21	Z21	X22	Y22	Z22
99	3.3251908396946566	1.1325874602022146	-0.754371263329223	0.0	1.102949793449372	-0.7558930207487502	0.0	1.116821966055618	-0.8976802844656255	0.0	1.1176764248618447	-1.0325471373065669	0.0	1.1362240059898998	-1.0551540641957093	0.0	1.116363269120713	-1.0568623681854477	0.0	1.1164573566619262	-1.0448222522541613	0.0	1.1631439692740182	-0.7525472687540815	0.0	1.1858140533316397	-0.8908583783390553	0.0	1.2084326528215745	-1.0208893063499518	0.0	1.2136070772765646	-1.0529326031404185	0.0	1.231324674316611	-1.045416169678583	0.0	1.2065409798385756	-1.0327582825243085	0.0	1.113496628145973	-0.5715062440027736	0.0	1.1083966448879667	-0.4954445861237976	0.0	1.1120644884733824	-0.5398285562211816	0.0	1.0652958056823185	-0.6013298156859181	0.0	1.0586780354420466	-0.6903408243389578	0.0	1.043129514082473	-0.7704033343521155	0.0	1.1656349271051474	-0.598758817929372	0.0	1.1790340249647255	-0.6843451536919636	0.0	1.2037560913255436	-0.7613062017824299	0.0
100	3.3587786259541987	1.1359358785703433	-0.7831611973013999	0.0	1.1059899208890531	-0.7860941692810417	0.0	1.1203434512858796	-0.9269493874611031	0.0	1.1199589810549693	-1.0544821369477742	0.0	1.1366423648219592	-1.0688873331361293	0.0	1.1161879528168326	-1.0706005212885243	0.0	1.1190614083289052	-1.0646594959529645	0.0	1.1670508094392766	-0.7821462236089929	0.0	1.1898825796267147	-0.9196515462467276	0.0	1.2125824805701675	-1.0452833438242095	0.0	1.2125360158055318	-1.072707276108881	0.0	1.2310688787383455	-1.0673012494760943	0.0	1.2116672170481118	-1.0563923174785304	0.0	1.1157108459493246	-0.5972426429403075	0.0	1.1091807280270218	-0.5204961491407614	0.0	1.113146934140487	-0.5654110537900732	0.0	1.0673537566594078	-0.6292729755920847	0.0	1.0628741110827968	-0.7187437679788492	0.0	1.0492532458988915	-0.7994280702136604	0.0	1.1695094065670764	-0.6250079920570992	0.0	1.1862282130325055	-0.7110735526035721	0.0	1.2126633804785274	-0.7885688851945074	0.0
101	3.3923664122137405	1.1387365413207164	-0.8113227820618362	0.0	1.1086840079477014	-0.8152705971709874	0.0	1.1231783347325073	-0.9548552962900216	0.0	1.121276395721691	-1.0721661719811248	0.0	1.137171187231199	-1.0780179142878692	0.0	1.1159485354817393	-1.0798092970825068	0.0	1.1205887520267783	-1.0797316430406585	0.0	1.1702247873184448	-0.8107077392145312	0.0	1.1924037035741333	-0.9476206731014841	0.0	1.21377227562395	-1.0656686191095897	0.0	1.2093645411885743	-1.087828457140076	0.0	1.2284933403534706	-1.0847111509830554	0.0	1.213736681272164	-1.0757663155840134	0.0	1.1177541720705182	-0.62241030336657	0.0	1.1097539006848038	-0.5453387607759037	0.0	1.1141956223208993	-0.5903518375051555	0.0	1.0694058747233146	-0.6568497982496504	0.0	1.0667057816506476	-0.7466410215799573	0.0	1.0544057285903263	-0.8275116623332809	0.0	1.1729655973881883	-0.650648810853927	0.0	1.1933054043015614	-0.7371223770331301	0.0	1.221519076074707	-0.815045829949821	0.0
102	3.4259541984732826	1.1409118329253098	-0.8356925177825734	0.0	1.1108845549810273	-0.840252703908181	0.0	1.125078338475847	-0.9783841399079126	0.0	1.1217764821495606	-1.0846435984362035	0.0	1.1379068384649047	-1.0830400980849657	0.0	1.1159080840448665	-1.0849766276126693	0.0	1.12127093788307	-1.089622599163748	0.0	1.1726384748227077	-0.8351272869714095	0.0	1.1934944066023856	-0.9717140285504741	0.0	1.212912059141386	-1.0806821068487966	0.0	1.2059824228790967	-1.0978719956279075	0.0	1.2253290701477593	-1.0964469250649072	0.0	1.2134524258739765	-1.0895602655851606	0.0	1.119638674156971	-0.6441497449324229	0.0	1.110232283812229	-0.5671214540148931	0.0	1.115199420556316	-0.611809038979971	0.0	1.0713890278550222	-0.6808410508745523	0.0	1.070077611797853	-0.7708782616659572	0.0	1.0586722030350924	-0.8515132811618047	0.0	1.1760285024374553	-0.6728341068902994	0.0	1.1999509262031902	-0.7596045791905863	0.0	1.2295757820381181	-0.8378115345470293	0.0
103	3.459541984732825	1.1425181136399896	-0.8533999133019081	0.0	1.1126184059956505	-0.8582117904083726	0.0	1.1261263499676142	-0.9949462795856737	0.0	1.1217407822374978	-1.092029702350534	0.0	1.1388191723259544	-1.0852077975383334	0.0	1.1161271165445583	-1.0873305720188242	0.0	1.1214211119623483	-1.0950690321588947	0.0	1.174408450316863	-0.8526726272540589	0.0	1.1936033108199469	-0.9891419805646453	0.0	1.2113302124659808	-1.0900586596271822	0.0	1.2038488908107647	-1.1035076456588702	0.0	1.2232478775366507	-1.1026886976444064	0.0	1.2119687015719236	-1.0978173612816418	0.0	1.1214543943967397	-0.6598003349483691	0.0	1.1108848663364685	-0.5830701073437847	0.0	1.1162978367258627	-0.6272002082294497	0.0	1.0733150163148943	-0.6982771411742574	0.0	1.072959441449386	-0.7884905494173446	0.0	1.0622209357581784	-0.868652618444353	0.0	1.1788063181780477	-0.688967178107985	0.0	1.2059376544208908	-0.7757971690058194	0.0	1.2361599061535282	-0.8540991324376015	0.0
104	3.4931297709923665	1.1436572253078476	-0.8623507055019686	0.0	1.1139538567475613	-0.8671057057611004	0.0	1.1265538455479638	-1.0028029598853418	0.0	1.1214191706197272	-1.0948807107784946	0.0	1.1397999411188724	-1.0857448414691482	0.0	1.116541068591963	-1.0880547506174802	0.0	1.1212416421091316	-1.0971534698251415	0.0	1.1756718624790052	-0.8614019418570108	0.0	1.1933156465912125	-0.9978818264423059	0.0	1.210199547361032	-1.0940265951842598	0.0	1.2034562084194305	-1.1057403765748604	0.0	1.223068315047229	-1.1044401180139036	0.0	1.2104230184386593	-1.1012690748157195	0.0	1.1232952621270917	-0.6674270728770477	0.0	1.1120152673412538	-0.5910569754395408	0.0	1.1176557789208925	-0.6346753332544044	0.0	1.0751794468930362	-0.7070596671848012	0.0	1.075308063975225	-0.797296354498105	0.0	1.0651206008025074	-0.8769845113328616	0.0	1.1813668909827566	-0.6971356433807177	0.0	1.2110647579412672	-0.7836152214096219	0.0	1.2407650904591319	-0.861777687509217	0.0
105	3.5267175572519087	1.1443769746880692	-0.8615127835813629	0.0	1.1148824551909426	-0.8659931191009078	0.0	1.1265541789559417	-1.0012990532468582	0.0	1.1209505935421091	-1.0936072363025928	0.0	1.1406983756755116	-1.0853413282515931	0.0	1.117034187408886	-1.0877865401753621	0.0	1.1207876745166458	-1.0965530036536333	0.0	1.1764853465040945	-0.8604385064573733	0.0	1.1930852421789588	-0.9970310013261291	0.0	1.210060475883904	-1.0927886307907848	0.0	1.2046640653245613	-1.1051445428107292	0.0	1.2247085004634857	-1.1026387841244587	0.0	1.2094587270100847	-1.1004609692508838	0.0	1.1251313601246373	-0.6661189437104211	0.0	1.1137782057567955	-0.5899581008021552	0.0	1.11930018386765	-0.633322350985509	0.0	1.0768896654825586	-0.7062590233050812	0.0	1.0769905935202577	-0.7962489304922851	0.0	1.0671784473330361	-0.8756205191215838	0.0	1.1836635405562426	-0.6963548204530354	0.0	1.2151515495048077	-0.7819904474295966	0.0	1.2431219860050513	-0.8597484827132491	0.0
106	3.5603053435114504	1.1446775218568503	-0.8511748831163045	0.0	1.1153401773894487	-0.8553218704543726	0.0	1.1262525347060695	-0.9910118950533913	0.0	1.1204423956105918	-1.0883058599561006	0.0	1.1413484455414789	-1.0839846342839636	0.0	1.1174835629352151	-1.0864508704290898	0.0	1.120113506293474	-1.093194965039463	0.0	1.1768450215600545	-0.8502144068022351	0.0	1.193091201104819	-0.9870046932607307	0.0	1.210718154491853	-1.086472829091765	0.0	1.207131075756467	-1.1015888457881553	0.0	1.2276172375571193	-1.0975975537743483	0.0	1.2090671980249403	-1.095388177730337	0.0	1.1268273532056499	-0.656148384707833	0.0	1.1161237244276083	-0.5799145545763987	0.0	1.1211326623923539	-0.6233327677587494	0.0	1.078334102170313	-0.6961882251994806	0.0	1.0778059119681058	-0.7856280481201791	0.0	1.06795293601494	-0.8648311226160754	0.0	1.185582408352876	-0.6867701562502853	0.0	1.218148175169158	-0.7711233508101429	0.0	1.243263145916853	-0.8482171659757447	0.0
107	3.5938931297709926	1.1445892903878176	-0.8328577628417272	0.0	1.115299707653145	-0.83680226187139	0.0	1.1257454317573925	-0.9735108648280314	0.0	1.120076576555664	-1.0788516336376412	0.0	1.141611985746544	-1.0810182705683513	0.0	1.1177898278965208	-1.0833318675793757	0.0	1.1194505551089657	-1.0863828557841309	0.0	1.1767779962077087	-0.832331518601601	0.0	1.1932563777076601	-0.9693404173449995	0.0	1.211560403202665	-1.0752169598551369	0.0	1.2104817304010134	-1.0945223793210503	0.0	1.2311144364713842	-1.0890468350236553	0.0	1.2088297373913703	-1.0856630336540432	0.0	1.1282911849018016	-0.6388183589070795	0.0	1.11887405965596	-0.5622507661944182	0.0	1.1230339567641956	-0.6059211004846534	0.0	1.079485063441922	-0.6781900740055642	0.0	1.0775716312502106	-0.7668995093839759	0.0	1.0668931242962096	-0.8458824372958936	0.0	1.1870515608325327	-0.6695825137723701	0.0	1.2202602457785174	-0.7523862731306051	0.0	1.241576339647031	-0.8285723532638783	0.0
108	3.6274809160305344	1.1441904492248411	-0.8089511711326567	0.0	1.114796071435898	-0.8129112827764342	0.0	1.1251099858210802	-0.9508995251986048	0.0	1.1200928137089399	-1.0651237199068484	0.0	1.1414631689781178	-1.0754256236535245	0.0	1.1179134965698276	-1.0773892667929175	0.0	1.1192302887647385	-1.0752860053137754	0.0	1.1763913425728125	-0.8091210446444055	0.0	1.19336781652611	-0.9463581133512997	0.0	1.2119928283058135	-1.0593571307367364	0.0	1.2141936547950398	-1.0836774104595994	0.0	1.2344912979847193	-1.076742571366748	0.0	1.2082933047206141	-1.071049977474429	0.0	1.1295598601819432	-0.6161380873356392	0.0	1.1218181697306793	-0.5391160950606231	0.0	1.1249191803835037	-0.5830418365054452	0.0	1.0803961308483405	-0.6543267311947263	0.0	1.0761801888258409	-0.7423601640147788	0.0	1.0635050335468068	-0.8207876954120187	0.0	1.1881274800625805	-0.6467719118868447	0.0	1.2219494234475825	-0.7280011129749592	0.0	1.2387873090918358	-0.803037713779232	0.0
109	3.6610687022900765	1.1435544291482536	-0.7823250608982208	0.0	1.1138818648100177	-0.7864131859434681	0.0	1.1243947645074925	-0.9255191502938411	0.0	1.120656758212162	-1.047393184198915	0.0	1.14106541431237	-1.0663335869474009	0.0	1.1179062573296845	-1.0677878918001718	0.0	1.1198750813803147	-1.0595630700524352	0.0	1.1758346880720725	-0.7832424564777226	0.0	1.1932061328095656	-0.9209030637408565	0.0	1.2116909612773576	-1.039916224887552	0.0	1.2173784896407234	-1.069719104585959	0.0	1.237009249864886	-1.0612893873716276	0.0	1.207218616839624	-1.0522098269075482	0.0	1.1307473093386273	-0.5905433885717439	0.0	1.1247634941310682	-0.5131019263340466	0.0	1.1267333030136215	-0.5571159195545028	0.0	1.081138530095954	-0.6271337110989257	0.0	1.073591870807515	-0.7147388795298334	0.0	1.0575021396718132	-0.79205871901362	0.0	1.188988671184934	-0.6208206284196116	0.0	1.2237756309487917	-0.7006500461482585	0.0	1.2358070603409135	-0.7742702809642628	0.0
110	3.6946564885496187	1.1427383840594605	-0.7558011442657092	0.0	1.1126141059603385	-0.7599410993067384	0.0	1.1236082710728432	-0.8996706792054833	0.0	1.121745966716504	-1.026664833758083	0.0	1.1406967962044714	-1.0535670250703493	0.0	1.117878311541994	-1.0544024892870656	0.0	1.1215066065811738	-1.0398288689124076	0.0	1.175227513193781	-0.7573078433368395	0.0	1.192609155233819	-0.8958582435528677	0.0	1.210641181116817	-1.018964645953808	0.0	1.2190072107789955	-1.0542860840269601	0.0	1.2380510793810113	-1.0444690726138524	0.0	1.205644983842969	-1.0311448359715687	0.0	1.1319292298002086	-0.5645522143875074	0.0	1.1275527517360135	-0.4867948354204424	0.0	1.1284201410957042	-0.530669549652618	0.0	1.0817479739695428	-0.5992735245092449	0.0	1.069816498096948	-0.6866834452479005	0.0	1.0488712499596156	-0.7622519592593603	0.0	1.189841034585737	-0.594305074906541	0.0	1.226187991277701	-0.6729581651312416	0.0	1.2334810697507244	-0.7448217512112049	0.0
